<?xml version="1.0" encoding="utf-8" ?><svg xmlns="http://www.w3.org/2000/svg" xmlns:xlink="http://www.w3.org/1999/xlink" width="590" height="498" viewBox="0 0 590 498"><path fill="#6790b9" d="M319.557 36.1906C319.692 36.2566 319.837 36.3062 319.964 36.3885C321.305 37.2619 323.587 42.2056 324.396 43.858C326.901 48.9716 329.046 54.2461 331.372 59.4409L341.765 82.1541C348.64 97.1089 355.975 111.851 362.584 126.928C372.816 150.271 383.99 173.212 394.664 196.351L470.759 361.546L496.637 417.425C500.195 425.311 505.676 436.384 507.964 444.56C499.476 444.478 490.987 444.442 482.498 444.454C477.721 444.472 468.049 445.207 463.848 444.059C461.574 441.539 456.407 428.978 454.668 425.241C447.174 409.33 439.785 393.37 432.499 377.362L319.886 133.297C317.961 138.117 315.522 142.858 313.385 147.603C307.994 159.599 302.513 171.554 296.941 183.467L248.737 288.503L233.653 321.291C230.599 327.919 227.392 334.498 224.689 341.278C230.408 340.654 235.817 341.1 241.52 341.247C246.336 341.372 251.173 341.301 255.991 341.311C274.313 341.402 292.636 341.393 310.958 341.284C321.178 341.269 331.485 341.563 341.694 341.122C338.13 331.411 333.431 321.997 328.845 312.73C322.845 300.389 317.399 287.762 311.634 275.309C306.912 265.108 301.757 254.967 297.356 244.64C297.429 244.194 297.519 243.758 297.637 243.321C298.499 240.142 300.085 237.014 301.446 234.018C303.754 228.945 306.104 223.89 308.494 218.855C311.727 211.933 314.537 204.64 318.285 197.983C318.698 197.25 319.078 196.437 319.875 196.064C320.142 195.939 320.178 195.909 320.417 196.034C321.047 196.362 321.565 197.229 321.882 197.841C325.763 205.347 329.037 213.357 332.429 221.098C336.058 229.424 339.827 237.688 343.735 245.887C365.937 293.407 387.829 341.071 409.409 388.876C415.9 403.053 422.629 417.123 428.892 431.402C430.776 435.695 433.348 439.816 434.437 444.403C426.705 444.885 418.723 444.479 410.967 444.488C404.051 444.496 396.976 444.944 390.088 444.468C386.857 439.695 384.637 433.258 382.112 428.018L360.474 382.447C355.152 382.196 349.748 382.457 344.415 382.426C332.516 382.267 320.616 382.218 308.716 382.279L205.413 382.431C202.77 387.689 200.464 393.106 198.01 398.453C193.479 408.448 188.822 418.387 184.041 428.265C181.401 433.711 178.98 439.601 175.675 444.659C161.02 445.031 146.27 444.712 131.606 444.697C133.964 436.676 138.615 428.144 142.18 420.497L159.622 382.707L227.412 235.621L300.715 76.6106L311.648 52.7003C313.421 48.7655 317.114 39.038 319.557 36.1906Z"/><path fill="#6790b9" d="M246.198 36.4085L246.671 36.5644C249.075 38.6941 257.522 59.5587 259.385 63.5965C262.049 69.3705 265.537 75.2831 267.487 81.3194C268.365 84.0348 267.924 85.3777 266.897 87.9444C264.313 94.4028 261.079 100.701 258.154 107.018L244.833 136.223L195.754 242.698L127.727 390.501C121.323 404.11 115.253 417.876 108.805 431.464C106.716 435.868 104.761 440.368 102.507 444.688C94.733 444.908 86.9292 444.764 79.1516 444.751C71.9448 444.755 64.7381 444.704 57.532 444.598C58.8978 438.864 65.1852 426.965 67.9309 421.068L87.4719 378.724L150.437 242.357L214.495 103.503L233.992 61.3557C237.402 53.958 241.546 42.8012 246.198 36.4085Z"/></svg>